HIERARCHY
ROOT Hips
{
  OFFSET 0 0 0
  CHANNELS 6 Xposition Yposition Zposition Zrotation Yrotation Xrotation
  JOINT LeftThigh
  {
    OFFSET 8.409438 0 -5.917753
    CHANNELS 3 Zrotation Yrotation Xrotation
    JOINT LeftLeg
    {
      OFFSET 0 0 -42.358652
      CHANNELS 3 Zrotation Yrotation Xrotation
      JOINT LeftFoot
      {
        OFFSET 0 0 -39.357303
        CHANNELS 3 Zrotation Yrotation Xrotation
      }
    }
  }
  JOINT RightThigh
  {
    OFFSET -8.409438 0 -5.917753
    CHANNELS 3 Zrotation Yrotation Xrotation
    JOINT RightLeg
    {
      OFFSET 0 0 -42.358652
      CHANNELS 3 Zrotation Yrotation Xrotation
      JOINT RightFoot
      {
        OFFSET 0 0 -39.357303
        CHANNELS 3 Zrotation Yrotation Xrotation
      }
    }
  }
  JOINT SpineLow
  {
    OFFSET 0 0 4.719101
    CHANNELS 3 Zrotation Yrotation Xrotation
    JOINT SpineMid
    {
      OFFSET 0 0 12.899191
      CHANNELS 3 Zrotation Yrotation Xrotation
      JOINT Chest
      {
        OFFSET 0 0 12.899191
        CHANNELS 3 Zrotation Yrotation Xrotation
        JOINT LeftShoulder
        {
          OFFSET 7.550562 1.41573 9.438202
          CHANNELS 3 Zrotation Yrotation Xrotation
          JOINT LeftArm
          {
            OFFSET 9.155056 0 4.247191
            CHANNELS 3 Zrotation Yrotation Xrotation
            JOINT LeftForearm
            {
              OFFSET 0 0 25.771955
              CHANNELS 3 Zrotation Yrotation Xrotation
              JOINT LeftHand
              {
                OFFSET 0 0 25.197169
                CHANNELS 3 Zrotation Yrotation Xrotation
              }
            }
          }
        }
        JOINT RightShoulder
        {
          OFFSET -7.550562 1.41573 9.438202
          CHANNELS 3 Zrotation Yrotation Xrotation
          JOINT RightArm
          {
            OFFSET -9.155056 0 4.247191
            CHANNELS 3 Zrotation Yrotation Xrotation
            JOINT RightForearm
            {
              OFFSET 0 0 -25.771955
              CHANNELS 3 Zrotation Yrotation Xrotation
              JOINT RightHand
              {
                OFFSET 0 0 -25.197169
                CHANNELS 3 Zrotation Yrotation Xrotation
              }
            }
          }
        }
        JOINT Neck
        {
          OFFSET 0 0 15.101124
          CHANNELS 3 Zrotation Yrotation Xrotation
          JOINT Head
          {
            OFFSET 0 0 11.325843
            CHANNELS 3 Zrotation Yrotation Xrotation
            End Site
            {
              OFFSET 0 0 14.157303
            }
          }
        }
      }
    }
  }
}
MOTION
Frames: 11
Frame Time: 0.0
0.0  89.887642  0.0  15.997341  -59.653971  -120.142986  43.669528  -45.899611  -27.555389  19.262626  29.884622  73.339107  -1.226827  0.917471  1.251204  -20.031162  12.633105  -35.479699  26.176282  13.249103  69.81258  16.122379  11.708757  -2.787244  2.1838  1.954934  1.449712  6.095766  5.205256  4.143593  6.095766  5.205256  4.143593  -11.709783  20.855677  17.535283  -80.924147  50.043469  -69.846687  -47.170909  8.873219  67.218988  76.20869  10.200523  12.093421  7.564423  4.334396  25.775661  104.783313  49.464529  19.678804  -11.881239  11.597181  -81.23091  87.162302  -15.247696  12.332231  10.63912  -4.668388  15.484585  8.099596  -3.235386  11.692575  
0.0  89.887642  0.0  15.388395  -59.261639  -119.598133  43.626291  -45.941131  -27.797186  18.967802  30.0085  73.06104  -1.199864  0.925799  1.26418  -20.279286  12.798883  -34.815428  25.747673  13.216418  68.87755  16.111204  11.591909  -2.648066  2.124969  1.778477  1.276835  5.909932  4.743064  3.649207  5.909932  4.743064  3.649207  -11.25451  21.751554  18.719602  -81.220205  49.89445  -70.45392  -47.181214  9.783207  67.772007  76.350973  10.813937  11.439422  8.130356  5.076947  27.138621  101.874084  49.611829  18.009411  -13.134676  13.124273  -82.133866  87.336236  -15.86544  13.898796  10.293168  -4.253744  16.463206  7.837855  -2.916509  12.417604  
0.0  89.887642  0.0  14.511323  -58.861528  -118.800815  43.665438  -46.021091  -28.270857  18.676515  30.098101  72.874511  -1.232449  0.87561  1.251224  -20.721437  12.763755  -34.214554  25.479625  13.179876  67.933642  16.20498  11.498432  -2.472926  2.073503  1.552346  1.034885  5.739989  4.149885  2.963135  5.73999  4.149885  2.963135  -10.829059  22.860696  20.327266  -81.186891  49.766455  -70.81797  -47.216479  11.08049  68.395689  76.551444  11.563937  10.428956  8.813329  5.933198  28.958963  98.220219  49.857145  15.779471  -14.288567  14.546373  -83.214581  87.296065  -16.648892  15.851677  9.9111  -3.753112  17.726219  7.547216  -2.530614  13.35496  
0.0  89.887642  0.0  13.604339  -58.339533  -117.920416  43.663574  -45.977886  -28.846571  18.175122  30.29151  72.563755  -1.202365  0.898356  1.276988  -21.325924  12.758144  -33.721426  25.262725  13.098215  67.00472  16.230867  11.381061  -2.331363  2.031523  1.338107  0.779604  5.600556  3.588646  2.243717  5.600556  3.588646  2.243717  -10.553613  23.838269  22.013156  -80.731442  49.802623  -70.793298  -47.282349  12.752338  69.077243  76.823116  12.430049  9.037137  9.421204  6.698104  30.652818  94.233864  50.211143  13.302558  -15.167781  15.249803  -84.530229  87.098825  -17.714271  18.245466  9.414131  -3.283902  18.980432  7.168992  -2.173536  14.286032  
0.0  89.887642  0.0  12.397554  -57.596892  -116.650947  43.684459  -45.767651  -29.770259  17.617314  30.325526  72.426814  -1.343343  0.871778  1.21096  -22.176804  12.713904  -33.389718  24.971599  13.066984  66.142652  16.232857  11.253009  -2.255137  2.002647  1.156563  0.574101  5.504908  3.111093  1.66493  5.504907  3.111093  1.664929  -10.864669  24.41458  23.190426  -79.702355  50.087924  -70.350761  -47.089717  14.732542  69.933932  77.113478  13.371001  7.295128  9.586975  7.342211  31.574102  90.257332  50.742575  10.666632  -15.62021  14.763338  -86.036459  87.331687  -18.930726  20.623658  8.775781  -2.892509  19.944631  6.683396  -1.885686  15.00049  
0.0  89.887642  0.0  11.092842  -56.606133  -115.196745  43.625643  -45.383241  -30.935828  17.092658  30.38707  72.441443  -1.438771  0.761864  1.086393  -23.297639  12.734779  -33.131275  24.580938  13.114588  65.200325  16.243917  11.101351  -2.216686  2.011123  1.117586  0.528669  5.524869  3.008235  1.537838  5.524869  3.008235  1.537838  -11.896472  23.795936  23.259711  -78.221449  50.623597  -69.231699  -46.381737  16.710784  71.068237  77.362406  14.507565  5.309647  9.046976  7.410949  30.976082  86.228433  51.612131  7.676171  -15.710961  13.516233  -87.637245  88.663358  -19.837478  22.095927  7.850856  -2.85161  20.097997  5.988505  -1.883185  15.10996  
0.0  89.887642  0.0  9.663698  -55.391525  -113.571428  43.468976  -44.854209  -32.294355  16.443662  30.337471  72.478781  -1.426752  0.70826  0.984671  -24.600187  12.766426  -32.99684  24.056652  13.220633  64.278079  16.251074  10.948254  -2.207189  2.015578  1.109495  0.55766  5.538117  2.983596  1.616579  5.538117  2.983596  1.616579  -13.353069  22.682303  22.722823  -76.152146  51.378941  -67.280957  -44.924859  18.144699  72.587347  77.598872  15.906896  3.270927  8.20659  7.320368  29.604926  81.886105  52.876684  4.111702  -15.862209  12.508332  -89.349364  91.24178  -20.376181  21.776895  6.89898  -2.829383  19.950845  5.272329  -1.899407  14.994281  
0.0  89.887642  0.0  8.291333  -54.127766  -111.926085  43.413402  -44.154787  -33.793167  15.853011  30.083658  72.621632  -1.615714  0.647212  0.781439  -26.109008  12.811134  -32.887906  23.532664  13.239487  63.295423  16.298543  10.864757  -2.30251  1.952032  1.072362  0.559195  5.363308  2.88367  1.614865  5.363308  2.88367  1.614865  -14.033562  21.659478  22.352387  -73.216522  52.305112  -63.737686  -43.071301  18.500649  74.255198  77.852955  17.372935  1.911006  7.84278  7.366294  28.129269  76.784068  54.407809  -0.336319  -16.434658  12.125286  -91.409368  94.728642  -21.105838  19.900857  6.105292  -2.673083  19.871576  4.671016  -1.80869  14.92943  
0.0  89.887642  0.0  6.797103  -52.655632  -110.071534  43.245636  -43.25452  -35.510687  15.297641  29.596794  72.829575  -1.836521  0.579274  0.58605  -27.64486  12.779435  -32.88214  22.931487  13.337523  62.305847  16.364309  10.714091  -2.334678  1.806549  1.052119  0.577814  4.96565  2.830652  1.657919  4.96565  2.830653  1.657919  -14.46266  20.321606  21.735433  -69.202227  53.480091  -58.719237  -41.235343  17.469532  76.004942  78.331143  18.767895  1.926887  7.929436  7.229255  26.128806  70.801635  56.073919  -5.600259  -17.392179  12.044836  -93.689914  98.345545  -21.98676  17.438626  5.517333  -2.521166  19.684011  4.223824  -1.715367  14.784799  
0.0  89.887642  0.0  5.427878  -51.125504  -108.20545  43.083988  -42.229581  -37.288241  14.848224  29.091186  73.050513  -2.239736  0.535814  0.285472  -30.9564  12.436468  -32.987512  23.627346  12.885224  60.726881  16.572531  10.782205  -2.471535  1.618064  1.00937  0.705747  4.454157  2.710091  1.996671  4.454157  2.710091  1.996671  -14.485554  18.857254  20.259062  -64.515508  54.82928  -52.144505  -39.634589  14.749992  77.769587  78.912324  19.817486  3.374916  8.258209  7.32501  23.110679  64.133104  57.82279  -11.531196  -18.583082  11.815847  -95.864062  101.784602  -22.662958  14.469039  4.992523  -2.171754  19.059056  3.816139  -1.474867  14.311439  
0.0  89.887642  0.0  4.036759  -49.429927  -106.204167  42.789383  -41.173965  -39.170801  14.568693  28.550309  73.302683  -2.691752  0.4717  0.057719  -32.483752  12.28756  -33.068385  23.040969  12.915632  59.70174  16.608304  10.619946  -2.544788  1.40747  1.027906  0.824203  3.883796  2.760224  2.313078  3.883796  2.760224  2.313078  -14.478565  16.796714  18.710679  -59.197584  56.460343  -44.385044  -38.397443  10.125333  79.306296  79.357246  19.842094  5.587102  8.7565  7.040291  19.840049  56.554247  59.628867  -18.436708  -19.911473  11.099257  -97.654351  105.127956  -22.654608  10.983157  4.570272  -2.070118  18.362818  3.493326  -1.416821  13.786998  
